<svg xmlns="http://www.w3.org/2000/svg" viewBox="0 0 676.59 453.37"><defs><style>.cls-1{fill:#192537;}.cls-2{fill:#f98638;}.cls-3{fill:#fdba1e;}.cls-4{fill:#754fb9;}.cls-5{fill:#131b25;}.cls-6{fill:#212652;}.cls-7{fill:#182533;}.cls-8{fill:#2a3575;}.cls-9{fill:#fa4a35;}.cls-10{fill:#ea7a2f;}.cls-11{fill:#073a68;}.cls-12{fill:#033d7e;}.cls-13{fill:#6c8ffd;}.cls-14{fill:#1d1423;}.cls-15{fill:#5a81e5;}.cls-16{fill:#456cce;}.cls-17{fill:#6142a5;}.cls-18{fill:#fbce1b;}.cls-19{fill:#e53a2e;}.cls-20{fill:#fff;}.cls-21{fill:#d8930b;}.cls-22{fill:#eda618;}.cls-23{fill:#cc8912;}</style></defs><g id="Layer_2" data-name="Layer 2"><g id="OBJECTS"><path class="cls-1" d="M529,140.86a126.35,126.35,0,0,1,29.24,34.29c24.14,41.13,25.91,92.22,7.76,136-8.27,19.94-16.8,36.81-31.56,53.18a205.9,205.9,0,0,1-48.81,39.44c-29.15,17.1-62,27.56-95.49,31.85-51.85,6.65-105,7.74-156-3.86S134.34,395,100.07,355.56q-2.64-3-5.15-6.2c-56.51-71-61.65-182,.67-250.68C126.83,64.27,170.72,42,216.72,35.37c29.88-4.3,62.1-1.71,87.29,14.92,17.07,11.27,27.8,30.23,44.81,40.75,18.49,11.43,38.53,18.48,59.88,22.44,15.94,3,32.11,4.33,48.27,5.49,14.2,1,28.4.25,42,5A100.46,100.46,0,0,1,529,140.86Z"/><path class="cls-2" d="M254.12,234.78a19.94,19.94,0,0,0,1.2-12.84,13.56,13.56,0,0,0-8.44-9.36c-4.16-1.37-9.24,0-11.65,3.69-1.87,2.82-2,6.45-1.64,9.81.31,2.89,1.09,5.89,1.17,8.78.08,3.21-.82,6.22-.11,9.47s2.78,6.25,5.88,7.24"/><path class="cls-3" d="M441.45,403.78,465,393.33l14.58,43.39s-7.64,1.78-16.71-18.07l-18,4.73"/><path class="cls-4" d="M462.19,394.59q7.31,20.84,14.62,41.68a9.64,9.64,0,0,1-1.23-.59q-7.14-20.34-14.27-40.7Z"/><path class="cls-3" d="M358.83,391.57l23.58-10.46L397,424.51s-7.64,1.78-16.71-18.08l-18,4.73"/><path class="cls-4" d="M379.56,382.38l14.62,41.67a9.49,9.49,0,0,1-1.23-.58q-7.14-20.36-14.27-40.7Z"/><path class="cls-5" d="M292.55,355.73s-49.1,43.86-45.2,67.49c5.3,32.11,72,31.09,102.14,20.64s-4.43-48.41-4.43-48.41l-44.73,14.19,32.26-33.82,4.72-36.5-29.21,5.55Z"/><path class="cls-6" d="M342.17,424.26a5.55,5.55,0,0,0-1.33.09l-3.77.47c-3.28.42-8,1.08-13.89,1.57a100,100,0,0,1-20.62-.17,57.08,57.08,0,0,1-11.8-2.69,19.37,19.37,0,0,1-5.46-3.07,9.11,9.11,0,0,1-3.26-5.24,10.56,10.56,0,0,1,1-6.16,41.6,41.6,0,0,1,3.18-5.54c2.29-3.57,4.59-7,6.85-10.13C297.6,387,302,381.53,305.76,377s7-8,9.25-10.48l2.58-2.8a5.78,5.78,0,0,0,.85-1,5.42,5.42,0,0,0-1,.86c-.64.6-1.57,1.48-2.73,2.66-2.34,2.34-5.65,5.8-9.54,10.26s-8.33,9.95-12.92,16.29c-2.29,3.17-4.62,6.56-6.94,10.14a41.72,41.72,0,0,0-3.28,5.68,11.62,11.62,0,0,0-1.08,6.82,10.24,10.24,0,0,0,3.64,5.88,20.39,20.39,0,0,0,5.79,3.24,56.3,56.3,0,0,0,12.07,2.69,97,97,0,0,0,20.81-.06c5.9-.6,10.62-1.38,13.88-1.93,1.63-.28,2.89-.51,3.75-.68A6,6,0,0,0,342.17,424.26Z"/><path class="cls-7" d="M322.89,361.13s-17.38,58.63-3.37,82.73,132.58-5.2,132.58-5.2l-4.47-55.14-86,22.13s9.54-33.25,6.78-47.67S322.89,361.13,322.89,361.13Z"/><path class="cls-8" d="M442.73,416.56c-.52-12.12-1.06-23.14-1.52-31.39l-.81.21c.27,8.24.69,19.2,1.22,31.23.39,8.88.78,17.17,1.14,24.22l.95-.21C443.45,433.6,443.12,425.37,442.73,416.56Z"/><path class="cls-8" d="M442.39,412.12c-7.39,2.25-15.8,4.53-25.05,6.6A327.87,327.87,0,0,1,378.87,425a152.49,152.49,0,0,1-20.12.68,85.59,85.59,0,0,1-9.51-.82,18.93,18.93,0,0,1-8.31-3.14,10.15,10.15,0,0,1-4-7.08,21.86,21.86,0,0,1,.81-8c.66-2.56,1.53-5,2.29-7.35l2.22-6.77L348.9,372c.68-2.18,1.26-4,1.75-5.58.15-.52.29-1,.43-1.46a2.31,2.31,0,0,0,.11-.51,1.71,1.71,0,0,0-.22.48c-.17.44-.34.91-.54,1.42-.54,1.55-1.19,3.36-1.95,5.51l-7,20.35c-.73,2.16-1.5,4.41-2.29,6.75s-1.67,4.77-2.37,7.38a22.83,22.83,0,0,0-.89,8.36,11.65,11.65,0,0,0,1.33,4.28,11.12,11.12,0,0,0,3,3.5,19.85,19.85,0,0,0,8.75,3.37,84.8,84.8,0,0,0,9.65.86,149.58,149.58,0,0,0,20.27-.66,322.34,322.34,0,0,0,63.36-13A4.73,4.73,0,0,1,442.39,412.12Z"/><path class="cls-8" d="M342.22,389.49c.17-.07-.34-1.44-.85-3.7a30.56,30.56,0,0,1-.63-4,29.81,29.81,0,0,1,.74-9.84,34.51,34.51,0,0,1,1.22-3.87c.85-2.16,1.56-3.43,1.41-3.53s-1.07,1.07-2.13,3.21a23.21,23.21,0,0,0-1.49,3.93,27.62,27.62,0,0,0-.91,5.07,28.8,28.8,0,0,0,.13,5.14,24.73,24.73,0,0,0,.89,4.11C341.33,388.28,342.11,389.54,342.22,389.49Z"/><path class="cls-4" d="M264.45,183.36c-4-5.94-3.56-13.17,1.78-16.73a13.78,13.78,0,0,1,9.61-1.88l-8.06-12.11a6.06,6.06,0,0,0-8.39-1.69l-14,9.31a12.57,12.57,0,0,1,3.94,3.69c3.56,5.34,1.14,12.16-4.81,16.12s-13.17,3.57-16.73-1.78a12.42,12.42,0,0,1-1.88-5l-14.83,9.88a6,6,0,0,0-1.68,8.38L235.73,231a6.05,6.05,0,0,0,8.39,1.68l48.28-32.16a6,6,0,0,0,1.68-8.39L286,180a13.78,13.78,0,0,1-5.45,8.15C275.23,191.73,268.41,189.31,264.45,183.36Z"/><path class="cls-2" d="M394.18,385.31c1,6.44,2.43,12.85,3.62,19.25a2.84,2.84,0,0,0,.38,1.15,1,1,0,0,0,1.05.47c.44-.13.66-.63.8-1.07a22.76,22.76,0,0,0,.38-11.09,31.61,31.61,0,0,1,4.22,16.86c0,.81.07,1.86.85,2.08s1.52-.85,1.72-1.75c1.33-5.87-.1-12-1.52-17.81l4.42,16.86a1.34,1.34,0,0,0,.57.93c.72.32,1.25-.72,1.33-1.49.58-5.61-.46-11.25-1.49-16.79l3.92,15.22c.11.43.26.91.66,1.08.87.39,1.45-.93,1.46-1.88a56.43,56.43,0,0,0-2-16l4.58,10c.23.49.63,1.08,1.16.95s.62-.72.66-1.21c.44-6.27-1.78-12.47-4.8-17.86-2.82-5-6.68-10.68-11-14.46"/><path class="cls-2" d="M258,248.92c-1.93-5-.9-10.55-.05-15.82.54-3.36,2-8.45.25-11.65s-3.09-.4-3.82,1.89c-1,3.2-1,6.74-2.77,9.7-2,3.4-6.1,5-8.8,7.86a12.49,12.49,0,0,0-2.4,12.84"/><path class="cls-6" d="M242,243.3a14.67,14.67,0,0,1,1.33-3.71,13.05,13.05,0,0,1,2.78-3.22c1.22-1.07,2.67-2.14,4.08-3.44a12.9,12.9,0,0,0,3.1-4.44,16.76,16.76,0,0,0,1-4.27,12.77,12.77,0,0,1,.84-2.76c.28-.63.55-.9.51-.93s-.37.2-.72.82a10.54,10.54,0,0,0-1.05,2.78,18.53,18.53,0,0,1-1.14,4.14,12.94,12.94,0,0,1-3,4.21c-1.37,1.26-2.82,2.35-4,3.47a12.6,12.6,0,0,0-2.78,3.43,8.83,8.83,0,0,0-.92,2.83A3,3,0,0,0,242,243.3Z"/><path class="cls-6" d="M264.68,101.59a3.15,3.15,0,0,0,.57-.91,8.58,8.58,0,0,0,.82-2.84,12.65,12.65,0,0,0-.38-4.37c-.39-1.59-1-3.29-1.4-5.09a12.8,12.8,0,0,1-.12-5.14,18.1,18.1,0,0,1,1.36-4,10.25,10.25,0,0,0,.68-2.87c.05-.71-.1-1.09-.14-1.08s0,.38-.1,1a13,13,0,0,1-.83,2.74,16.32,16.32,0,0,0-1.52,4.09,12.84,12.84,0,0,0,.08,5.37c.44,1.86,1,3.54,1.44,5.1a12.82,12.82,0,0,1,.5,4.19A15.47,15.47,0,0,1,264.68,101.59Z"/><path class="cls-9" d="M358.93,271.35l-6.16.4h0l.93-.06c-8.51,9.32-22.51,13.39-34.57,9.62-5.88-1.84-11.51-6.16-13.75-11.65-8.24,0-21.43,2.23-41.68,11L262,238.75c-11.27,1-22.54,1.92-33.83,2.71.37,24.22,2.32,61,10.57,69.46,12.56,12.85,58.82-2.77,58.82-2.77l5,17.36s-11.27,16-14.9,33.78c0,0,46.3,23.09,82.22,6.49l1.7-13.17,17.72,40.72,33.22-12.81S383,268.12,358.93,271.35Z"/><path class="cls-10" d="M353.7,271.69l-11.63.75a3.46,3.46,0,0,1-3.67-3.06l-1.62-14.22L318,259.29l-.35,8.07a3.46,3.46,0,0,1-4.35,3.19,31.19,31.19,0,0,0-7.89-.89c2.24,5.49,7.87,9.81,13.75,11.65C331.19,285.08,345.19,281,353.7,271.69Z"/><path class="cls-11" d="M342.8,200.5a17.31,17.31,0,1,1,19.09,14.38"/><path class="cls-3" d="M346,200a6.5,6.5,0,0,1,10.67,2.36,5.54,5.54,0,0,1,6.85,7.56"/><path class="cls-12" d="M362.45,255.75a180.37,180.37,0,0,0,10.48-21.35c2.47-6.07.77-14-2.76-19.38s-8.38-7.38-13.73-10.47c-5.74-3.31-10.36-7-17.1-8.14a29.19,29.19,0,0,0-18.18,2.31c-9.21,4.66-15.17,14.37-13.9,24.68"/><path class="cls-9" d="M238.33,81.08a19.76,19.76,0,0,1,6.14-11.23,13.47,13.47,0,0,1,12.15-3c4.18,1.18,7.57,5.16,7.53,9.51,0,3.36-1.94,6.41-4.11,9-1.86,2.2-4.16,4.24-5.83,6.57-1.86,2.59-2.78,5.57-5.17,7.84s-5.76,3.6-8.86,2.69"/><path class="cls-9" d="M65.62,187.32c-1,6.44-2.43,12.85-3.62,19.25a2.79,2.79,0,0,1-.38,1.15,1,1,0,0,1-1,.47c-.45-.13-.67-.63-.81-1.07A22.64,22.64,0,0,1,59.4,196a31.62,31.62,0,0,0-4.23,16.86c0,.81-.07,1.87-.85,2.09s-1.52-.86-1.72-1.76c-1.33-5.87.1-12,1.52-17.8L49.7,212.27a1.34,1.34,0,0,1-.57.93c-.71.32-1.24-.72-1.33-1.49-.57-5.61.46-11.25,1.49-16.79l-3.92,15.22a1.5,1.5,0,0,1-.66,1.09c-.87.38-1.45-.94-1.46-1.89a56.52,56.52,0,0,1,2-16l-4.58,10c-.23.49-.63,1.08-1.15,1s-.63-.73-.67-1.22c-.44-6.27,1.78-12.47,4.8-17.86,2.82-5,6.68-10.67,11-14.46"/><path class="cls-13" d="M270.4,86.06a13.67,13.67,0,0,1-2.46-8.69l-11.23,8.4a6,6,0,0,1-8.47-1.22L236.92,69.42A13.62,13.62,0,0,0,245.77,67c5.14-3.84,5.14-11.08.86-16.8s-11.22-7.76-16.36-3.92a13.65,13.65,0,0,0-4.85,7.8L213.49,38.1a6.06,6.06,0,0,1,1.22-8.47l38-28.42a6,6,0,0,1,8.47,1.22l34.75,46.45a6.06,6.06,0,0,1-1.22,8.47l-11.23,8.4a13.57,13.57,0,0,1,7.64,4.81c3.84,5.14,1.8,12.08-3.92,16.36S274.24,91.2,270.4,86.06Z"/><path class="cls-9" d="M227.31,90.57c4.35-3,6.59-8.18,8.83-13,1.42-3.06,3.08-8,6.26-9.71s2.77,1.38,2.09,3.66c-.94,3.21-2.92,6.11-3.11,9.52-.22,3.92,2.26,7.48,2.87,11.36a12.37,12.37,0,0,1-5.16,11.89"/><path class="cls-14" d="M23.75,275.73,0,285.81l21.71,40.3s6.52-4.36-1.77-24.55l15.74-9.9"/><path class="cls-4" d="M3,284.56l20.44,39a10.7,10.7,0,0,0,.39-1.33l-19.94-38Z"/><path class="cls-14" d="M148.16,355.06l-3.61,25.54,45.73,2.16s-.38-7.83-21.95-11.13L168,353.05"/><path class="cls-4" d="M145,377.52l44.09,2.66a12.69,12.69,0,0,0-.9-1l-43.05-2.6Z"/><path class="cls-15" d="M94.48,226.74l-76.64,38.7C22,281.66,30,297.2,40.23,310.83l101-62.18,1.89-29.58Z"/><path class="cls-16" d="M141,227.6l-3.55,2.2-5.61,3.5c-2.2,1.36-4.68,2.93-7.45,4.6-5.53,3.4-12.17,7.36-19.59,11.67s-15.65,8.9-24.38,13.58-17.13,9-24.81,12.77S40.91,283,35,285.76l-2.31,1.07a4.79,4.79,0,0,1,.66.53l2-.88c5.94-2.63,12.95-5.89,20.68-9.64s16.15-8,24.89-12.7,17-9.34,24.37-13.68,14-8.4,19.48-11.88c2.76-1.72,5.21-3.34,7.37-4.75s4-2.64,5.51-3.66l3.45-2.38a7.32,7.32,0,0,0,1.16-.89A7.73,7.73,0,0,0,141,227.6Z"/><path class="cls-16" d="M45.91,306.78c-1.32-1.83-2.6-3.87-4-6-2.68-4.29-5.47-9.11-8.09-14.34s-4.75-10.37-6.55-15.1c-.85-2.38-1.7-4.63-2.36-6.79q-.39-1.19-.75-2.31l-1.2.6c.2.7.41,1.4.62,2.12.61,2.2,1.42,4.49,2.24,6.91a138.54,138.54,0,0,0,14.79,29.75c1.44,2.12,2.78,4.14,4.16,5.95l.23.31,1.17-.72C46.09,307,46,306.91,45.91,306.78Z"/><path class="cls-13" d="M131.6,358c13.12,3.61,27.51,2.91,40.61-.23A116.36,116.36,0,0,0,186,353.53c-.76-9.32-3.07-38.16-5.12-70.44-2.72-42.91-.78-91.29-29.23-92.76l-66-25.09s-24,25.75-11,48.23S138,230.56,138,230.56Z"/><path class="cls-16" d="M161.28,352.61a115.15,115.15,0,0,0,24.18-5.72c0-.5-.08-1-.13-1.56A121.24,121.24,0,0,1,161.08,351,122.62,122.62,0,0,1,132,351l-.08,1.44A115.72,115.72,0,0,0,161.28,352.61Z"/><path class="cls-16" d="M159.94,280.89c.11,1.83.23,3.64.35,5.43s.17,3.57.26,5.32c.64,14,1,26.62,1.24,37.22.2,9.79.29,17.86.34,23.71a3.75,3.75,0,0,1,.47-.17c.06-5.84.09-13.84,0-23.55-.12-10.61-.42-23.24-1-37.26-.07-1.75-.16-3.52-.24-5.32s-.22-3.6-.33-5.43q-.33-5.5-.68-11.22c-.47-7.62-1-15.5-1.46-23.57-.19-4-.24-8-.69-12a42.64,42.64,0,0,0-1.1-5.84,23.65,23.65,0,0,0-2.23-5.46,16.82,16.82,0,0,0-8.61-7.41,30.67,30.67,0,0,0-10.78-1.58c-3.53,0-6.94.22-10.23.14a64.92,64.92,0,0,1-9.54-.94,49.53,49.53,0,0,1-16.11-5.76,38.79,38.79,0,0,1-10.73-9.14,35,35,0,0,1-5.42-9.21,31.59,31.59,0,0,1-1.83-6.53c-.24-1.53-.32-2.35-.37-2.35a2.85,2.85,0,0,0,0,.61c0,.4,0,1,.14,1.78A29.79,29.79,0,0,0,83,189a34.9,34.9,0,0,0,5.34,9.44,39.06,39.06,0,0,0,10.82,9.43,50,50,0,0,0,16.34,6,64.21,64.21,0,0,0,9.68,1c3.35.1,6.77-.11,10.25-.09a29.87,29.87,0,0,1,10.41,1.54,15.78,15.78,0,0,1,8,7,22.62,22.62,0,0,1,2.12,5.2,42.47,42.47,0,0,1,1.05,5.68c.44,3.88.49,7.87.69,11.93.5,8.07,1,15.95,1.47,23.58C159.47,273.49,159.7,277.23,159.94,280.89Z"/><path class="cls-16" d="M87.62,168.17c-.16,0,.19,1.67.8,4.27a64.12,64.12,0,0,1,1.71,10.19A27,27,0,0,1,89,192.74c-.83,2.5-1.75,3.89-1.59,4s1.27-1.18,2.33-3.71a23.74,23.74,0,0,0,1.53-10.46,45.2,45.2,0,0,0-2.07-10.33C88.37,169.67,87.76,168.13,87.62,168.17Z"/><path class="cls-17" d="M146.36,32.17c-2.54-9-13.07-14.24-22.18-12.35s-16.29,9.72-19,18.63c-1.88,6.1-1.93,12.63-3.52,18.82S96.32,69.75,90.19,71.56c-5.3,1.57-10.9-.57-16.4-1.13A20.52,20.52,0,0,0,61.1,72.9c-3.74,2.28-6.52,6.38-6.56,10.76s3.07,8.8,7.37,9.64a10.36,10.36,0,1,0,8.65,18.77,15.49,15.49,0,0,0,10.26,14.25c9.7,3.28,24.22-4.27,29.53-12.34a16.27,16.27,0,0,0,25.78-15.87"/><path class="cls-18" d="M124.78,36.86a6.49,6.49,0,0,1,9-5.68,5.49,5.49,0,0,1,9.31.53"/><path class="cls-19" d="M154.35,104.89a1.83,1.83,0,0,1-1.82-2l.5-8-18.37-.69-2.63,6a1.84,1.84,0,0,1-2.37,1A20.94,20.94,0,0,0,124,100,24.45,24.45,0,0,0,145.12,110a28.06,28.06,0,0,0,13.28-4.46A16.1,16.1,0,0,0,154.35,104.89Z"/><path class="cls-3" d="M229.41,79.93l-39.84,43.69c-16.43-12.17-25.9-16.58-31.17-18.06A28.06,28.06,0,0,1,145.12,110,24.45,24.45,0,0,1,124,100c-6.67-.64-17.52,1.15-30.9,13.56-22.77,21.13-47.95,55.4-47.95,55.4s5.33,16.8,26.35,27l16.86-25.08c18.89,24.54,63.33,19.49,63.33,19.49,2.44-21.92.5-36.65.5-36.65,11.33-6,11.76-13.84,11.76-13.84s9.81,17.59,25.67,19.75,63.69-55.27,63.69-55.27Z"/><path class="cls-9" d="M171.92,56.09a92.59,92.59,0,0,1,1.16,15.39,83.15,83.15,0,0,1-.39,11.38c-.48,3.48-1.74,5-4.09,7.52-4.59,4.85-11.39,6.77-17.81,7.67-6.71.93-14.58.84-20.59-2.49-.69-.38-6.62-5.25-6.54-5.28-5.94,2.56-14,1.14-16.87-5.13a10.2,10.2,0,0,1,.52-9.7A8,8,0,0,1,114,72a1.47,1.47,0,0,0,1.48-1.87,70.79,70.79,0,0,1-2.72-15.75c-.27-4.59,2.57-8.07,5.59-11.31a29.12,29.12,0,0,1,10-6.7A41.5,41.5,0,0,1,152,33.65a30.8,30.8,0,0,1,12.21,5.13C169.79,43.1,170.84,49.51,171.92,56.09Z"/><path class="cls-20" d="M151.52,77.93a13.91,13.91,0,0,1-8.7-3.1,6.63,6.63,0,0,0-.28,1.91,6,6,0,0,0,5.79,6.2,5.93,5.93,0,0,0,5.72-5.25A14,14,0,0,1,151.52,77.93Z"/><path class="cls-12" d="M148.76,73s.21.42.86.91a7.66,7.66,0,0,0,3.13,1.38,7,7,0,0,0,1.18.12,2,2,0,0,0,1.4-.49,1.79,1.79,0,0,0,.49-1.58,4.72,4.72,0,0,0-.47-1.43,21.7,21.7,0,0,1-2-5.54,23,23,0,0,1,.27-10.6c.68-2.68,1.55-4.2,1.37-4.29s-1.22,1.34-2.13,4.06a21.06,21.06,0,0,0-.6,11.06,19.92,19.92,0,0,0,2.14,5.76c.41.77.61,1.58.25,1.9s-1.16.32-1.8.25a8.74,8.74,0,0,1-3-1C149.17,73.22,148.82,73,148.76,73Z"/><ellipse class="cls-12" cx="139.33" cy="54.96" rx="3.9" ry="2.02" transform="translate(-10.27 62.25) rotate(-24.32)"/><ellipse class="cls-12" cx="161.51" cy="54.12" rx="2.02" ry="3.9" transform="translate(45.69 179.02) rotate(-65.68)"/><ellipse class="cls-12" cx="141.35" cy="67.41" rx="1.98" ry="4.11" transform="translate(-7 17.24) rotate(-6.81)"/><ellipse class="cls-12" cx="160.86" cy="65.26" rx="1.98" ry="4.11" transform="translate(-6.6 19.54) rotate(-6.81)"/><path class="cls-12" d="M121.35,88.77A6.9,6.9,0,0,0,121.2,86a13.2,13.2,0,0,0-2.57-6.13,8.57,8.57,0,0,0-2.91-2.35,7,7,0,0,0-3-.68c-1.78,0-2.71.73-2.65.8a15,15,0,0,1,2.62-.21,7.26,7.26,0,0,1,2.67.78,8.52,8.52,0,0,1,2.6,2.19,15,15,0,0,1,2.64,5.72A12.68,12.68,0,0,0,121.35,88.77Z"/><path class="cls-12" d="M116.7,87.55c.08-.1-.34-.49-.76-1.24a4.93,4.93,0,0,1,.75-6.1c.6-.63,1.1-.91,1-1s-.65,0-1.44.58a4.83,4.83,0,0,0-.85,6.88C116.07,87.4,116.65,87.64,116.7,87.55Z"/><path class="cls-4" d="M166.79,36.66c-.44-.55-.89-1-1.28-1.43-7.54-7.63-19.42-6-28.82-3.3a138.9,138.9,0,0,0-15.12,5.31c-6.39,2.65-11.5,10.13-11.29,17.1a33.51,33.51,0,0,0,1.47,7.93c.22.77,2.62,8.74,3,8.68,6.78-1.23,13-7.69,16.25-13.48a31.31,31.31,0,0,0,3.63-19.67,52.57,52.57,0,0,0,18.85,7.32c3.56.55,12.34,1.74,14.89-1.71C169.88,41.35,168.38,38.62,166.79,36.66Z"/><path class="cls-21" d="M158.4,105.56A28.06,28.06,0,0,1,145.12,110,24.45,24.45,0,0,1,124,100a25.46,25.46,0,0,0-4.79,0c3.86,7,11.47,11.76,19.44,13,8.72,1.37,17.7-1,25.43-5.3A41.43,41.43,0,0,0,158.4,105.56Z"/><path class="cls-20" d="M163.27,128c-.2-1.06-.39-2.09-.56-3.08a19,19,0,0,0,.9-3.29c.48-2.59.37-4.74.15-4.75s-.5,2.07-1,4.6c-.11.63-.23,1.23-.34,1.78a39.43,39.43,0,0,1-.56-6.61c0-2.92.56-4.68.41-4.72a3.53,3.53,0,0,0-.45,1.21,17.34,17.34,0,0,0-.55,3.49,39.9,39.9,0,0,0,.72,9c0,.26,0,.42,0,.44s0,0,0,0c.12.67.24,1.35.37,2a46,46,0,0,1,1.07,11.34c-.19,2.91-.87,4.63-.72,4.68a3.66,3.66,0,0,0,.54-1.18,15.65,15.65,0,0,0,.77-3.44A39,39,0,0,0,163.27,128Z"/><path class="cls-20" d="M237.67,95.49c-4.41-4.29-8.53-8.25-12-11.5l-.63.68c3.34,3.34,7.41,7.34,11.81,11.62,4.76,4.63,9.18,8.87,12.77,12.26l.58-.68C246.76,104.39,242.41,100.1,237.67,95.49Z"/><path class="cls-20" d="M122.54,183.33a78.69,78.69,0,0,1-27.36-13.56c-1.66-1.28-3.1-2.48-4.34-3.56h0v.07a1.5,1.5,0,0,1-.24.54c1.16,1.1,2.53,2.3,4.1,3.57a74.32,74.32,0,0,0,57.36,15.78c0-.28.05-.56.07-.83A78.93,78.93,0,0,1,122.54,183.33Z"/><path class="cls-20" d="M72.06,191c-1.35-.79-2.69-1.78-4.12-2.79a62.6,62.6,0,0,1-15.53-16.54c-.92-1.5-1.82-2.9-2.52-4.29-.37-.69-.75-1.35-1.06-2l-.4-.87-.58.76.2.48c.29.67.67,1.34,1,2.06.68,1.43,1.57,2.88,2.48,4.41A59.38,59.38,0,0,0,67.33,189c1.48,1,2.86,2,4.25,2.74.66.38,1.29.77,1.91,1.1l.49-.72C73.35,191.8,72.73,191.38,72.06,191Z"/><path class="cls-20" d="M103.1,151.37c1.69-2.2,3.46-4.52,5.18-7s3.44-5.11,5-7.92c3.15-5.57,5.63-11.36,6.12-17a20.39,20.39,0,0,0-.83-7.92,17.5,17.5,0,0,0-3.4-6,18.88,18.88,0,0,0-4.19-3.61l-.55.21.14.08a19.09,19.09,0,0,1,4.15,3.7,17.18,17.18,0,0,1,3.19,5.88,19.91,19.91,0,0,1,.72,7.64c-.51,5.46-3,11.13-6.08,16.66-1.55,2.78-3.24,5.39-5,7.86s-3.44,4.8-5.11,7c-3.37,4.4-6.47,8.31-9,11.68s-4.42,6.17-5.68,8.16c-.63,1-1.09,1.78-1.4,2.31a3.67,3.67,0,0,0-.43.84,3.87,3.87,0,0,0,.57-.75l1.53-2.22c1.34-1.92,3.32-4.67,5.88-8Z"/><path class="cls-2" d="M308.39,220c-.55,1.39-1.07,2.75-1.56,4A92.34,92.34,0,0,0,302,240.9c-2.06,11.19,5.3,20.11,15.26,24.16a38.26,38.26,0,0,0,16,2.72c6.94-.32,13-1.87,18.79-5.64a12.14,12.14,0,0,0,14.43,3.48c3.89-1.85,7.6-6.47,6.63-11a8.91,8.91,0,0,0-3-4.71c-.39-.35-4.56-3-4.66-2.73.9-2.56,2.17-4.79,2.51-7.53a52.73,52.73,0,0,1,1.1-6.94c1.73-6.66,1.25-11.3-2.77-17a30.6,30.6,0,0,0-9.12-8.69,42.75,42.75,0,0,0-23.93-6.82,31.74,31.74,0,0,0-13.42,3.3C314.2,206.67,310.9,213.7,308.39,220Z"/><path class="cls-12" d="M321.82,241.56c0-.09-.41-.09-1.1-.18a8.3,8.3,0,0,1-2.79-.84,4.3,4.3,0,0,1-.76-.48c-.22-.2-.29-.4-.23-.47s.28-.26.65-.4l1.17-.53a19.36,19.36,0,0,0,4.67-3.2,20.49,20.49,0,0,0,5.57-8.53c.83-2.5.81-4.15.69-4.16s-.45,1.55-1.42,3.88a23,23,0,0,1-5.6,8,21.09,21.09,0,0,1-4.38,3.12l-1.09.54a1.85,1.85,0,0,0-1.14,1,1.17,1.17,0,0,0,.09.89,1.8,1.8,0,0,0,.47.54,4.14,4.14,0,0,0,1,.53,7,7,0,0,0,3.1.57C321.44,241.77,321.83,241.63,321.82,241.56Z"/><ellipse class="cls-12" cx="316.15" cy="231.48" rx="3.95" ry="2.19" transform="translate(-15.97 439.39) rotate(-68.26)"/><ellipse class="cls-12" cx="335.2" cy="239.29" rx="3.95" ry="2.19" transform="translate(-11.23 462.01) rotate(-68.26)"/><ellipse class="cls-12" cx="322.64" cy="217.4" rx="4.54" ry="2.27"/><ellipse class="cls-12" cx="338.94" cy="223.82" rx="2.27" ry="4.54" transform="translate(-61.08 294.28) rotate(-43.43)"/><path class="cls-12" d="M326.79,243.78c-.16-.06-.5.61-1.35,1.37a5.3,5.3,0,0,1-7.69-.35c-.77-.83-1.05-1.53-1.22-1.48s-.12.87.6,2a5.51,5.51,0,0,0,8.89.4C326.83,244.66,326.91,243.82,326.79,243.78Z"/><path class="cls-12" d="M355.58,263a13.29,13.29,0,0,0,1.19-2.59,16.08,16.08,0,0,1,3.65-5.52,8.74,8.74,0,0,1,3-1.87,7.46,7.46,0,0,1,2.88-.38,15.62,15.62,0,0,1,2.68.67c.08-.06-.76-1-2.6-1.28a7.1,7.1,0,0,0-3.21.22,8.87,8.87,0,0,0-3.38,2,14,14,0,0,0-3.64,5.95A7.24,7.24,0,0,0,355.58,263Z"/><path class="cls-12" d="M360.57,262.52c0,.1.68,0,1.45-.75a5.18,5.18,0,0,0,.28-7.31c-.72-.75-1.34-1-1.39-.86s.39.49.9,1.25a5.3,5.3,0,0,1-.25,6.5C361,262.07,360.5,262.4,360.57,262.52Z"/><path class="cls-12" d="M367,246.85c.94-2,2.19-6,2.52-6.75,2.62-5.79,3.61-11.49,1.36-17.53a28.88,28.88,0,0,0-3.45-6.52c-3.78-5.33-9.14-8.1-14.06-12.13-4.12-3.37-8.69-4.46-13.91-5.27C329,197,317.37,198.45,312.33,209c4.72,3.78,11.41,5.88,17.38,6.32a35.41,35.41,0,0,0,20-4.55,40.65,40.65,0,0,0,.73,23,23,23,0,0,0,6.88,10.61c2.23,1.79,5.88,4.08,8.85,3.57C366.35,248,366.64,247.53,367,246.85Z"/><path class="cls-12" d="M358.93,271.35l-6.16.4h0l.93-.06c-8.51,9.32-22.51,13.39-34.57,9.62-5.88-1.84-11.51-6.16-13.75-11.65-1.24,0-2.61,0-4.08.17a27.54,27.54,0,0,0,16.55,16c9.65,3.37,20.64,1.54,29.56-3.46a45,45,0,0,0,13-11.08A7.51,7.51,0,0,0,358.93,271.35Z"/><path class="cls-20" d="M299.51,315.43c.15,0-.29-1.91-1-4.91s-1.64-7.15-2.48-11.77-1.41-8.84-1.79-11.9-.62-5-.78-5-.19,1.93,0,5a107.71,107.71,0,0,0,4.3,23.81C298.65,313.69,299.37,315.48,299.51,315.43Z"/><path class="cls-20" d="M296.26,300.5c.22-.16-2.12-3.25-3.92-7.6s-2.41-8.18-2.68-8.14,0,4,1.87,8.48S296.11,300.66,296.26,300.5Z"/><path class="cls-20" d="M228.29,246.69c0,.25,0,.5,0,.75,7.23-.47,15.72-1.1,24.78-1.87l9.17-.81,0-.87c-3,.27-6.06.54-9.21.8C244,245.46,235.51,246.13,228.29,246.69Z"/><path class="cls-20" d="M373,354.44a3.27,3.27,0,0,0-.29-.86c-.31-.77-.64-1.56-1-2.4l-3.63-8.8c-3-7.45-7.06-17.8-10.78-29.47-.93-2.92-1.76-5.79-2.55-8.57a65.85,65.85,0,0,1-1.9-8.07,27.85,27.85,0,0,1-.21-7.42,24,24,0,0,1,1.55-6.27,19.75,19.75,0,0,1,5.28-7.69c1.68-1.46,2.82-2,2.77-2.09a4.5,4.5,0,0,0-.83.38,14.6,14.6,0,0,0-2.17,1.45,19.25,19.25,0,0,0-5.62,7.71,24.1,24.1,0,0,0-1.71,6.43,28,28,0,0,0,.14,7.62,64.67,64.67,0,0,0,1.87,8.18c.78,2.78,1.61,5.68,2.54,8.6,3.74,11.72,7.9,22,11.05,29.45,1.59,3.7,2.93,6.67,3.89,8.7.48,1,.86,1.81,1.13,2.33A4.2,4.2,0,0,0,373,354.44Z"/><path class="cls-20" d="M386.88,387.66c5.27-1.93,11.56-4.35,18.27-7.14,5.47-2.28,10.57-4.54,15-6.58l-.27-.73c-4.48,2-9.61,4.21-15.09,6.49-6.71,2.79-13,5.27-18.22,7.29Z"/><path class="cls-20" d="M605.83,58.64h-4.46a27.58,27.58,0,0,0-2.62-7l3.44-3.44a5.34,5.34,0,0,0,0-7.56l-2.58-2.58a5.34,5.34,0,0,0-7.56,0l-3.16,3.16a27.8,27.8,0,0,0-6.79-3.08V33.27a5.34,5.34,0,0,0-5.35-5.35H573.1a5.34,5.34,0,0,0-5.34,5.35v4.46a28,28,0,0,0-7,2.62l-3.44-3.44a5.34,5.34,0,0,0-7.56,0l-2.58,2.58a5.34,5.34,0,0,0,0,7.56l3.16,3.16A27.8,27.8,0,0,0,547.27,57h-4.88A5.35,5.35,0,0,0,537,62.35V66a5.35,5.35,0,0,0,5.35,5.34h4.46a28,28,0,0,0,2.62,7L546,81.77a5.34,5.34,0,0,0,0,7.56l2.58,2.58a5.34,5.34,0,0,0,7.56,0l3.16-3.15a28.15,28.15,0,0,0,6.79,3.07v4.88a5.34,5.34,0,0,0,5.35,5.35h3.65a5.34,5.34,0,0,0,5.34-5.35V92.25a27.58,27.58,0,0,0,7-2.62l3.44,3.44a5.34,5.34,0,0,0,7.56,0L601,90.49a5.34,5.34,0,0,0,0-7.56l-3.15-3.16A28.15,28.15,0,0,0,601,73h4.88a5.34,5.34,0,0,0,5.35-5.35V64A5.34,5.34,0,0,0,605.83,58.64ZM554.64,65a19.47,19.47,0,1,1,19.47,19.47A19.47,19.47,0,0,1,554.64,65Z"/><path class="cls-22" d="M127,388.61h-5.72a36.13,36.13,0,0,0-3.36-9l4.41-4.41a6.86,6.86,0,0,0,0-9.7L119,362.23a6.86,6.86,0,0,0-9.7,0l-4,4a35.86,35.86,0,0,0-8.7-3.95v-6.26a6.86,6.86,0,0,0-6.86-6.86H85a6.86,6.86,0,0,0-6.86,6.86v5.72a35.91,35.91,0,0,0-9,3.37l-4.41-4.42a6.86,6.86,0,0,0-9.7,0l-3.31,3.31a6.86,6.86,0,0,0,0,9.7l4,4.05a35.36,35.36,0,0,0-3.94,8.71H45.63a6.86,6.86,0,0,0-6.86,6.85V398a6.86,6.86,0,0,0,6.86,6.86h5.72a35.5,35.5,0,0,0,3.36,9l-4.42,4.41a6.87,6.87,0,0,0,0,9.7l3.31,3.31a6.86,6.86,0,0,0,9.7,0l4-4a35.93,35.93,0,0,0,8.71,3.95v6.26a6.86,6.86,0,0,0,6.86,6.85H87.6a6.86,6.86,0,0,0,6.86-6.85v-5.72a35.84,35.84,0,0,0,9-3.37l4.42,4.42a6.86,6.86,0,0,0,9.7,0l3.31-3.31a6.87,6.87,0,0,0,0-9.7l-4.06-4.05a35.38,35.38,0,0,0,4-8.71H127a6.86,6.86,0,0,0,6.86-6.85v-4.69A6.86,6.86,0,0,0,127,388.61Zm-65.65,8.14a25,25,0,1,1,25,25A25,25,0,0,1,61.34,396.75Z"/><path class="cls-6" d="M355.05,153.13a13.83,13.83,0,0,1-.29-3.58,11.84,11.84,0,0,1,1.09-3.71c.6-1.35,1.4-2.79,2.09-4.4a11.89,11.89,0,0,0,.89-4.85,15.25,15.25,0,0,0-.75-3.94,12,12,0,0,1-.34-2.6c0-.62.12-1,.07-1a1.65,1.65,0,0,0-.28,1,9.3,9.3,0,0,0,.17,2.7,16.35,16.35,0,0,1,.61,3.86,11.88,11.88,0,0,1-.89,4.63c-.66,1.56-1.45,3-2,4.4a11.65,11.65,0,0,0-1,3.89,8.07,8.07,0,0,0,.31,2.7A3,3,0,0,0,355.05,153.13Z"/><path class="cls-9" d="M417.74,134.71a18.07,18.07,0,0,0-3.84-11.1A12.38,12.38,0,0,0,403.36,119c-4,.43-7.64,3.51-8.27,7.45-.48,3,.78,6.11,2.35,8.76,1.34,2.28,3.12,4.48,4.27,6.84,1.29,2.63,1.67,5.47,3.49,7.89s4.66,4.14,7.61,3.79"/><path class="cls-14" d="M619.63,240l23.59-10.45,14.58,43.39s-7.64,1.78-16.71-18.07l-18,4.73"/><path class="cls-4" d="M640.37,230.81,655,272.49a10.26,10.26,0,0,1-1.22-.59l-14.28-40.7Z"/><path class="cls-22" d="M493.57,221.26s-.16,64.14,7.34,81.77,133.77-29.21,133.77-29.21-5.35-37.81-18.87-49.48l-82.71,39-2.81-50.23"/><path class="cls-23" d="M626.59,268.33c-.27-1.77-.7-3.64-1.12-5.61a113.66,113.66,0,0,0-3.75-12.56,111.46,111.46,0,0,0-5.33-12c-1-1.77-1.85-3.46-2.8-5s-1.81-2.95-2.66-4.21c-.4-.64-.81-1.23-1.21-1.78l-.65.31,1.2,1.89c.8,1.29,1.67,2.7,2.52,4.25s1.76,3.23,2.69,5a113.8,113.8,0,0,1,9,24.31c.44,2,.9,3.79,1.21,5.54s.61,3.37.84,4.87q.27,1.75.45,3.24l.65-.23c-.07-1-.16-2-.31-3.12C627.13,271.75,626.91,270.09,626.59,268.33Z"/><path class="cls-23" d="M629.94,252.12,616,256.45c-16.15,5-38.55,11.54-63.51,18-6.24,1.62-12.33,3.18-18.23,4.63-2.95.68-5.85,1.68-8.61,1.4a6.11,6.11,0,0,1-3.59-1.6,9,9,0,0,1-2.14-3.34,38.29,38.29,0,0,1-1.69-7.86q-.6-3.91-1.09-7.61c-.66-4.92-1.19-9.52-1.62-13.72-.87-8.39-1.35-15.21-1.65-19.93-.13-2.1-.24-3.88-.34-5.43a13.5,13.5,0,0,0-.18-1.89,11,11,0,0,0,0,1.9c0,1.24,0,3.08.14,5.44.17,4.73.52,11.57,1.29,20,.38,4.21.87,8.82,1.49,13.76.31,2.47.66,5,1,7.64a39.14,39.14,0,0,0,1.7,8.08,9.8,9.8,0,0,0,2.39,3.74,7.16,7.16,0,0,0,4.18,1.89,14.86,14.86,0,0,0,4.57-.34c1.49-.32,2.94-.7,4.42-1.06,5.91-1.43,12-3,18.26-4.6,25-6.51,47.36-13.21,63.46-18.37,5.36-1.7,10-3.24,13.84-4.53C630,252.49,630,252.31,629.94,252.12Z"/><path class="cls-22" d="M369.86,154a13.64,13.64,0,0,0,5.16-7.41l7.87,11.62a6,6,0,0,0,8.4,1.61l14.36-9.73a12.8,12.8,0,0,1-5-4.23c-3.6-5.31-1.23-12.15,4.68-16.16s13.15-3.66,16.75,1.65a12.86,12.86,0,0,1,2.06,6.24l15.21-10.3a6.05,6.05,0,0,0,1.62-8.4L414.32,79.56a6,6,0,0,0-8.4-1.62l-15.2,10.3a12.94,12.94,0,0,1,5,4.24c3.6,5.31,1.24,12.15-4.68,16.16s-13.14,3.66-16.74-1.65a13,13,0,0,1-2.07-6.24l-14.36,9.73a6,6,0,0,0-1.62,8.4l7.87,11.61a13.65,13.65,0,0,0-8.8,2c-5.31,3.6-5.65,10.82-1.64,16.74S364.54,157.56,369.86,154Z"/><path class="cls-7" d="M513.22,129.57A11.86,11.86,0,0,0,522,112.94a10.87,10.87,0,0,0-5-.08"/><path class="cls-9" d="M568.56,216.61c1,6.43,2.43,12.84,3.62,19.25a2.9,2.9,0,0,0,.38,1.15,1,1,0,0,0,1.05.46c.45-.12.66-.62.8-1.07a22.52,22.52,0,0,0,.38-11.09A31.55,31.55,0,0,1,579,242.17c0,.82.07,1.87.86,2.09s1.51-.86,1.72-1.76c1.32-5.86-.1-12-1.52-17.8l4.41,16.85c.1.37.23.78.58.93.71.32,1.24-.71,1.32-1.49.58-5.61-.46-11.24-1.49-16.78l3.92,15.22a1.48,1.48,0,0,0,.67,1.08c.86.38,1.44-.94,1.46-1.88a56.8,56.8,0,0,0-2.05-16l4.59,10c.22.5.62,1.08,1.15,1s.63-.72.66-1.22c.45-6.26-1.78-12.46-4.8-17.86-2.82-5-6.68-10.67-11-14.45"/><path class="cls-9" d="M426.27,145c-3.48-3.41-4.72-8.41-6-13.11-.82-3-1.56-7.74-4.19-9.75s-2.71.83-2.45,3c.37,3.05,1.71,6,1.36,9.09-.4,3.59-3.18,6.43-4.33,9.84a11.39,11.39,0,0,0,2.85,11.56"/><path class="cls-14" d="M650.88,308.91l25.71,2.15-8,45.07s-7.56-2.11-6-23.88l-18-4.48"/><path class="cls-4" d="M673.49,310.8q-3.6,21.79-7.18,43.58a10.87,10.87,0,0,1-.8-1.1q3.51-21.28,7-42.56Z"/><path class="cls-3" d="M528.57,217.32s14.47,91.43,22.48,98.34S651.74,345.5,651.74,345.5s11.79-28.9,8.11-54.48L581,285.84S569.23,219.17,557.67,204"/><path class="cls-23" d="M563.24,234a10.73,10.73,0,0,0,6.55,2.66l.35,0-.21-.77h-.13a10.26,10.26,0,0,1-5.91-2.67,39.23,39.23,0,0,1-5.63-6.09,45.35,45.35,0,0,1-7-13.4c-1-3.25-1.43-5.51-1.63-6l-.12.06a11.29,11.29,0,0,0,.09,1.57,33.59,33.59,0,0,0,.91,4.59,40.34,40.34,0,0,0,6.8,13.85A36.63,36.63,0,0,0,563.24,234Z"/><path class="cls-23" d="M654,303.85c0-2.2.11-4.29,0-6.25,0-1,0-1.92-.08-2.82s-.12-1.75-.18-2.61c0-.54-.07-1.05-.11-1.56l-.75-.05c0,.54.06,1.09.07,1.66,0,.85.07,1.71.1,2.59s0,1.83,0,2.8c0,1.94-.07,4-.14,6.19a119.42,119.42,0,0,1-4.76,27.89c-.65,2.07-1.23,4.06-1.91,5.88-.33.91-.62,1.8-.95,2.64l-1,2.41c-.12.32-.24.64-.37.94l.75.19c.11-.27.23-.54.35-.82l1-2.4c.35-.84.66-1.73,1-2.64.72-1.82,1.35-3.82,2-5.91a108.44,108.44,0,0,0,4.8-28.13Z"/><path class="cls-23" d="M652.58,312.49l-3.84-.53c-3.72-.49-9.1-1.21-15.73-2.18-13.26-1.93-31.57-4.91-51.54-9.21a12.27,12.27,0,0,1-6.39-3.2,13.25,13.25,0,0,1-2.89-6.35c-.49-2.32-.76-4.69-1.11-7s-.66-4.54-1-6.74c-1.27-8.63-2.43-16.49-3.44-23.31-1-6.22-1.77-11.47-2.42-15.7-.27-1.6-.5-3-.71-4.27a7.38,7.38,0,0,0-.33-1.47,9,9,0,0,0,.1,1.51c.16,1.27.32,2.68.51,4.29.56,4.24,1.25,9.51,2.07,15.75.93,6.84,2,14.71,3.2,23.35q.46,3.3.94,6.74c.34,2.3.6,4.65,1.1,7.06a14.23,14.23,0,0,0,3.15,6.87c1.81,2,4.44,2.94,6.94,3.53,20.06,4.33,38.38,7.18,51.69,8.92,6.66.86,12.06,1.46,15.79,1.82,1.62.17,2.9.27,3.86.35A2.13,2.13,0,0,1,652.58,312.49Z"/><path class="cls-19" d="M488.74,145.23a14.85,14.85,0,0,0,14.75,3.39,15.59,15.59,0,0,0,9-8.76l-.58.14a3.49,3.49,0,0,1-4.2-2.25l-3.74-11L487.79,131l3,10A3.51,3.51,0,0,1,488.74,145.23Z"/><path class="cls-7" d="M524.17,103.85a41.82,41.82,0,0,0,.76-5.1c.58-6.6,0-13.84-3.1-19.81-2.66-5.12-8.17-9.89-14.12-10.27-.52,0-3,.41-3.29.18a15.22,15.22,0,0,0-9.87-3.33,103.81,103.81,0,0,0-10.84.81c-10.44,1.32-21.85,4.5-26.17,15.29-3.45,8.6-.19,19.6,7.79,24.33"/><path class="cls-9" d="M517.41,124.66a20.27,20.27,0,0,0,1.11-5c0,.34,5.61-1,6.09-1.26a9.1,9.1,0,0,0,4.08-3.76,9.49,9.49,0,0,0,0-10.55,8.18,8.18,0,0,0-7.77-3.14,1.82,1.82,0,0,1-2.15-1.81c.07-4.43-.13-8.42-1.94-12.77-3.27-7.86-9.26-9.46-16.69-11.17-8.17-1.88-16.7.14-24.55,2.51-4.13,1.24-6.32,3.38-8.87,6.89-3,4.18-3.47,10-3.69,14.91-.45,10.39-.94,22.79,3.82,32.31,2.56,5.1,9.57,6.83,14.79,7.34C494.49,140.45,512.55,137.9,517.41,124.66Z"/><path class="cls-4" d="M512.46,139.86a15.59,15.59,0,0,1-9,8.76,14.85,14.85,0,0,1-14.75-3.39h0a3.52,3.52,0,0,1-1.35.24,21.41,21.41,0,0,0-17.47,8C460.75,164.65,452,173.82,452,173.82l-24-34.34-29.32,15.73s27.85,57.1,41.49,57.39,44.7-24.83,44.7-24.83l4.75,5.47,1.64,34.08s44.29,6.84,69.05-20.62l4.35-24S544.91,132,512.46,139.86Z"/><path class="cls-20" d="M478.74,119.61a6.6,6.6,0,0,0,7.12,4.5c3.48-.6,5.75-4.24,5.08-8.13a9.63,9.63,0,0,0-.32-1.23A17.2,17.2,0,0,1,478.74,119.61Z"/><path class="cls-12" d="M524.2,103.78c0-.09-1-.12-2.26.68a8,8,0,0,0-3.21,4.69,14.77,14.77,0,0,0-.18,5.63,5.57,5.57,0,0,0,.55,2.26,7.09,7.09,0,0,0,.07-2.31,19.52,19.52,0,0,1,.41-5.36,8.43,8.43,0,0,1,2.73-4.4C523.36,104.12,524.24,103.93,524.2,103.78Z"/><path class="cls-12" d="M522.62,113.88c.1,0,.36-.34.51-1a5.06,5.06,0,0,0-.25-2.78,5.2,5.2,0,0,0-1.63-2.28c-.58-.44-1-.55-1.08-.45s1.23,1.19,1.89,3S522.37,113.81,522.62,113.88Z"/><path class="cls-12" d="M484.9,114.23c0-.14-1.59.49-4.18.86-.64.08-1.35.16-2.12.18s-1.61,0-1.66-.59a2.33,2.33,0,0,1,.26-1.09c.16-.45.33-.89.49-1.32.32-.91.63-1.85.92-2.83a54.46,54.46,0,0,0,2-10.2,15.86,15.86,0,0,0,.1-4.31,31.52,31.52,0,0,0-.72,4.23,76.42,76.42,0,0,1-2.26,10c-.29,1-.59,1.9-.9,2.79l-.46,1.32a2.88,2.88,0,0,0-.27,1.52,1.39,1.39,0,0,0,.46.78,1.82,1.82,0,0,0,.73.35,4.22,4.22,0,0,0,1.31,0,18.71,18.71,0,0,0,2.19-.3A10.3,10.3,0,0,0,484.9,114.23Z"/><ellipse class="cls-12" cx="472.7" cy="107.04" rx="2.19" ry="3.94"/><ellipse class="cls-12" cx="490.31" cy="106.69" rx="2.19" ry="3.94"/><ellipse class="cls-12" cx="472.33" cy="92.33" rx="4.36" ry="2.37" transform="translate(-6.33 142.35) rotate(-17.03)"/><ellipse class="cls-12" cx="490.51" cy="92.33" rx="2.37" ry="4.36" transform="translate(258.6 534.31) rotate(-72.97)"/><path class="cls-7" d="M519.85,100.87c1.53-1,2.4-2.7,2.32-5.36s-1.18-5.08-2.27-7.46c-2.24-4.89-4.78-10.1-9.5-12.66-3.09-1.68-6.71-2-10.21-2.24-6.85-.52-13.74-1-20.56-.21C470.72,74,463.2,79.32,460.25,88c-3.57,10.52,11.83,2.48,15.34,0a40.46,40.46,0,0,0,10.67-11.56,34.85,34.85,0,0,0,8.3,15.78,30.21,30.21,0,0,0,20.62,9.63A8.1,8.1,0,0,0,519.85,100.87Z"/><path class="cls-3" d="M512.19,147.78a21.3,21.3,0,0,0,4.23-8.59,30.07,30.07,0,0,0-4,.67,15.59,15.59,0,0,1-9,8.76,14.85,14.85,0,0,1-14.75-3.39h0a3.52,3.52,0,0,1-1.35.24c-.62,0-1.29,0-2,.05a16.54,16.54,0,0,0,26.79,2.26Z"/><path class="cls-3" d="M525.17,97.2c-6,0-12.09.7-18.1,1.08a13.51,13.51,0,0,0-24.46,3.09,4.41,4.41,0,0,0-5,0,13.51,13.51,0,1,0,.61,4,13.23,13.23,0,0,0-.14-1.79,2.49,2.49,0,0,1,4,0s0,0,.06,0a14.58,14.58,0,0,0-.13,1.76,13.54,13.54,0,1,0,26-5.18l11.65-.71c3.88-.23,11.67-1.78,12.48,3.76.19,1.23,2.05.7,1.87-.52C533.41,98.33,528.94,97.16,525.17,97.2Zm-60.53,19.73A11.6,11.6,0,1,1,476,103.22a.85.85,0,0,0,.06.42,10.61,10.61,0,0,1,.14,1.69A11.61,11.61,0,0,1,464.64,116.93Zm30.91,0a11.6,11.6,0,1,1,11.6-11.6A11.61,11.61,0,0,1,495.55,116.93Z"/><path class="cls-4" d="M519.92,157.71a14.21,14.21,0,0,1-2.25-11.8c1.32-4.92,5.26-9.3,16.35-3.65,19.72,10.05,49.64,46.36,56.19,66.28l-26.75,19S536.64,181.61,519.92,157.71Z"/><path class="cls-20" d="M490.89,194.88c.13-.13-1.46-1.76-3.64-4.68-.54-.74-1.12-1.54-1.69-2.45s-1.17-1.87-1.79-2.9a56.16,56.16,0,0,1-3.3-7.07,54.56,54.56,0,0,1-2.18-7.49c-.22-1.18-.45-2.3-.58-3.36s-.25-2.05-.33-3c-.3-3.63-.17-5.9-.36-5.91s-.18.56-.29,1.58a15.83,15.83,0,0,0-.13,1.88c0,.74-.07,1.58,0,2.5s.07,1.94.2,3,.3,2.24.49,3.45a45,45,0,0,0,5.6,14.87c.65,1,1.26,2,1.91,2.92s1.25,1.69,1.84,2.4,1.16,1.33,1.66,1.88a18,18,0,0,0,1.33,1.32C490.39,194.58,490.83,194.94,490.89,194.88Z"/><path class="cls-20" d="M478,172.33c.23-.25-1.7-2.21-3.13-5.18s-1.85-5.69-2.18-5.66c-.14,0-.24.72-.11,1.87a13.22,13.22,0,0,0,1.29,4.28,13.45,13.45,0,0,0,2.59,3.64C477.3,172.08,477.93,172.43,478,172.33Z"/><path class="cls-20" d="M560.57,222.58c4.8-3.19,10.62-7.25,16.79-11.88,3.74-2.82,7.26-5.57,10.43-8.14l-.47-.95c-3.24,2.56-6.83,5.33-10.63,8.19-6.13,4.6-11.88,8.71-16.58,12Z"/><path class="cls-20" d="M431.29,144.16c-3.65,2.05-7.54,4.35-11.56,6.88-6.5,4.11-12.34,8.23-17.12,11.82l.43.83c4.86-3.5,10.76-7.58,17.29-11.71,4-2.54,7.92-4.87,11.56-7Z"/><path class="cls-20" d="M556.19,215.67a21.45,21.45,0,0,0-1.38-3.18c-.5-1-1.13-2.2-1.87-3.61s-1.63-3-2.66-4.68c-2-3.43-4.61-7.42-7.61-11.76s-6.39-9-9.95-13.94c-1.77-2.46-3.5-4.87-5.14-7.21l-2.4-3.45c-.76-1.14-1.58-2.23-2.2-3.35a24.45,24.45,0,0,1-3.6-13.05,17.94,17.94,0,0,1,1-5.15,18.32,18.32,0,0,1,1.83-3.54l.84-1.19c.24-.28.47-.55.71-.81.37-.45.56-.7.53-.73s-.26.17-.7.57l-.79.75-.95,1.16a16.69,16.69,0,0,0-2.05,3.57,17.67,17.67,0,0,0-1.18,5.33,24.74,24.74,0,0,0,3.5,13.6c.65,1.19,1.44,2.27,2.2,3.43s1.58,2.3,2.39,3.49c1.63,2.35,3.36,4.77,5.14,7.23,3.55,4.93,7,9.59,10,13.88s5.66,8.22,7.77,11.59c1.08,1.67,2,3.22,2.8,4.57l2,3.51A19.88,19.88,0,0,0,556.19,215.67Z"/><path class="cls-6" d="M411.61,132.4a12,12,0,0,0-7.7,8.32c.17.07,1-2.43,3.22-4.75S411.7,132.56,411.61,132.4Z"/></g></g></svg>